<svg id="Channel_8" data-name="Channel 8" xmlns="http://www.w3.org/2000/svg" width="1150" height="795" viewBox="0 0 1150 795">
  <defs>
    <style>
      .cls-1, .cls-2, .cls-3, .cls-4 {
        fill: none;
        stroke: #000;
      }

      .cls-1, .cls-2 {
        stroke-width: 3px;
      }

      .cls-2, .cls-3, .cls-4 {
        fill-rule: evenodd;
      }

      .cls-3 {
        stroke-width: 1px;
      }

      .cls-4 {
        stroke-width: 7.874px;
      }
    </style>
  </defs>
  <circle id="Fader_Bottom_Screw" data-name="Fader Bottom Screw" class="cls-1" cx="988" cy="640.5" r="6"/>
  <path id="Fader" class="cls-2" d="M979.5,175.969h16V618.013h-16V175.969Zm0,0h16V618.013h-16V175.969Z"/>
  <circle id="Fader_Top_Screw" data-name="Fader Top Screw" class="cls-1" cx="988.015" cy="160.469" r="5.985"/>
  <path id="Toggle_Switch" data-name="Toggle Switch" class="cls-3" d="M989.491,111.017a14.239,14.239,0,1,1-14.008,14.237A14.124,14.124,0,0,1,989.491,111.017Zm0,0a14.239,14.239,0,1,1-14.008,14.237A14.124,14.124,0,0,1,989.491,111.017Zm0,0a14.239,14.239,0,1,1-14.008,14.237A14.124,14.124,0,0,1,989.491,111.017Zm0,0a14.239,14.239,0,1,1-14.008,14.237A14.124,14.124,0,0,1,989.491,111.017Zm0,0a14.239,14.239,0,1,1-14.008,14.237A14.124,14.124,0,0,1,989.491,111.017Zm0,0a14.239,14.239,0,1,1-14.008,14.237A14.124,14.124,0,0,1,989.491,111.017Zm0,0a14.239,14.239,0,1,1-14.008,14.237A14.124,14.124,0,0,1,989.491,111.017Zm0,0a14.239,14.239,0,1,1-14.008,14.237A14.124,14.124,0,0,1,989.491,111.017Zm0,0a14.239,14.239,0,1,1-14.008,14.237A14.124,14.124,0,0,1,989.491,111.017Zm0,0a14.239,14.239,0,1,1-14.008,14.237A14.124,14.124,0,0,1,989.491,111.017Zm0,0a14.239,14.239,0,1,1-14.008,14.237A14.124,14.124,0,0,1,989.491,111.017Zm0,0a14.239,14.239,0,1,1-14.008,14.237A14.124,14.124,0,0,1,989.491,111.017Zm0,0a14.239,14.239,0,1,1-14.008,14.237A14.124,14.124,0,0,1,989.491,111.017Zm0,0a14.239,14.239,0,1,1-14.008,14.237A14.124,14.124,0,0,1,989.491,111.017Zm0,0a14.239,14.239,0,1,1-14.008,14.237A14.124,14.124,0,0,1,989.491,111.017Zm0,0a14.239,14.239,0,1,1-14.008,14.237A14.124,14.124,0,0,1,989.491,111.017Zm0,0a14.239,14.239,0,1,1-14.008,14.237A14.124,14.124,0,0,1,989.491,111.017Zm0,0a14.239,14.239,0,1,1-14.008,14.237A14.124,14.124,0,0,1,989.491,111.017Z"/>
  <path id="Pan_Potentiometer" data-name="Pan Potentiometer" class="cls-2" d="M989.476,54.5a12,12,0,1,1-12,12A12,12,0,0,1,989.476,54.5Zm0,0a12,12,0,1,1-12,12A12,12,0,0,1,989.476,54.5Z"/>
  <circle id="Fader_Bottom_Screw-2" data-name="Fader Bottom Screw" class="cls-1" cx="870" cy="639.5" r="6"/>
  <path id="Fader-2" data-name="Fader" class="cls-2" d="M861.5,176.938h16V619.044h-16V176.938Zm0,0h16V619.044h-16V176.938Z"/>
  <circle id="Fader_Top_Screw-2" data-name="Fader Top Screw" class="cls-1" cx="870.015" cy="160.469" r="5.985"/>
  <path id="Toggle_Switch-2" data-name="Toggle Switch" class="cls-3" d="M871.422,111.017a14.239,14.239,0,1,1-14.008,14.237A14.124,14.124,0,0,1,871.422,111.017Zm0,0a14.239,14.239,0,1,1-14.008,14.237A14.124,14.124,0,0,1,871.422,111.017Zm0,0a14.239,14.239,0,1,1-14.008,14.237A14.124,14.124,0,0,1,871.422,111.017Zm0,0a14.239,14.239,0,1,1-14.008,14.237A14.124,14.124,0,0,1,871.422,111.017Zm0,0a14.239,14.239,0,1,1-14.008,14.237A14.124,14.124,0,0,1,871.422,111.017Zm0,0a14.239,14.239,0,1,1-14.008,14.237A14.124,14.124,0,0,1,871.422,111.017Z"/>
  <path id="Pan_Potentiometer-2" data-name="Pan Potentiometer" class="cls-2" d="M871.484,54.5a12,12,0,1,1-12,12A12,12,0,0,1,871.484,54.5Zm0,0a12,12,0,1,1-12,12A12,12,0,0,1,871.484,54.5Z"/>
  <circle id="Fader_Bottom_Screw-3" data-name="Fader Bottom Screw" class="cls-1" cx="752.015" cy="639.5" r="5.985"/>
  <path id="Fader-3" data-name="Fader" class="cls-2" d="M743.517,176.938h16V619.044h-16V176.938Zm0,0h16V619.044h-16V176.938Z"/>
  <circle id="Fader_Top_Screw-3" data-name="Fader Top Screw" class="cls-1" cx="752.031" cy="160.469" r="6"/>
  <path id="Toggle_Switch-3" data-name="Toggle Switch" class="cls-3" d="M753.354,111.017a14.239,14.239,0,1,1-14.009,14.237A14.123,14.123,0,0,1,753.354,111.017Zm0,0a14.239,14.239,0,1,1-14.009,14.237A14.123,14.123,0,0,1,753.354,111.017Zm0,0a14.239,14.239,0,1,1-14.009,14.237A14.123,14.123,0,0,1,753.354,111.017Zm0,0a14.239,14.239,0,1,1-14.009,14.237A14.123,14.123,0,0,1,753.354,111.017Zm0,0a14.239,14.239,0,1,1-14.009,14.237A14.123,14.123,0,0,1,753.354,111.017Zm0,0a14.239,14.239,0,1,1-14.009,14.237A14.123,14.123,0,0,1,753.354,111.017Zm0,0a14.239,14.239,0,1,1-14.009,14.237A14.123,14.123,0,0,1,753.354,111.017Zm0,0a14.239,14.239,0,1,1-14.009,14.237A14.123,14.123,0,0,1,753.354,111.017Zm0,0a14.239,14.239,0,1,1-14.009,14.237A14.123,14.123,0,0,1,753.354,111.017Z"/>
  <path id="Pan_Potentiometer-3" data-name="Pan Potentiometer" class="cls-2" d="M753.476,54.5a12,12,0,1,1-11.986,12A11.993,11.993,0,0,1,753.476,54.5Zm0,0a12,12,0,1,1-11.986,12A11.993,11.993,0,0,1,753.476,54.5Z"/>
  <circle id="Fader_Bottom_Screw-4" data-name="Fader Bottom Screw" class="cls-1" cx="634.015" cy="636.5" r="5.985"/>
  <path id="Fader-4" data-name="Fader" class="cls-2" d="M625.531,176.938h16V619.044h-16V176.938Zm0,0h16V619.044h-16V176.938Z"/>
  <circle id="Fader_Top_Screw-4" data-name="Fader Top Screw" class="cls-1" cx="634.031" cy="161.469" r="6"/>
  <path id="Toggle_Switch-4" data-name="Toggle Switch" class="cls-3" d="M635.285,111.017a14.239,14.239,0,1,1-14.009,14.237A14.124,14.124,0,0,1,635.285,111.017Zm0,0a14.239,14.239,0,1,1-14.009,14.237A14.124,14.124,0,0,1,635.285,111.017Zm0,0a14.239,14.239,0,1,1-14.009,14.237A14.124,14.124,0,0,1,635.285,111.017Zm0,0a14.239,14.239,0,1,1-14.009,14.237A14.124,14.124,0,0,1,635.285,111.017Zm0,0a14.239,14.239,0,1,1-14.009,14.237A14.124,14.124,0,0,1,635.285,111.017Zm0,0a14.239,14.239,0,1,1-14.009,14.237A14.124,14.124,0,0,1,635.285,111.017Z"/>
  <circle id="Pan_Potentiometer-4" data-name="Pan Potentiometer" class="cls-1" cx="635.469" cy="67.5" r="12"/>
  <circle id="Fader_Bottom_Screw-5" data-name="Fader Bottom Screw" class="cls-1" cx="515.954" cy="635.219" r="6.016"/>
  <path id="Fader-5" data-name="Fader" class="cls-2" d="M507.545,176.938h16V619.044h-16V176.938Zm0,0h16V619.044h-16V176.938Z"/>
  <path id="Fader_Top_Screw-5" data-name="Fader Top Screw" class="cls-2" d="M515.975,154.01a6,6,0,1,1-6.02,6A6.011,6.011,0,0,1,515.975,154.01Z"/>
  <path id="Toggle_Switch-5" data-name="Toggle Switch" class="cls-3" d="M517.216,111.017a14.239,14.239,0,1,1-14.008,14.237A14.124,14.124,0,0,1,517.216,111.017Zm0,0a14.239,14.239,0,1,1-14.008,14.237A14.124,14.124,0,0,1,517.216,111.017Zm0,0a14.239,14.239,0,1,1-14.008,14.237A14.124,14.124,0,0,1,517.216,111.017Zm0,0a14.239,14.239,0,1,1-14.008,14.237A14.124,14.124,0,0,1,517.216,111.017Zm0,0a14.239,14.239,0,1,1-14.008,14.237A14.124,14.124,0,0,1,517.216,111.017Zm0,0a14.239,14.239,0,1,1-14.008,14.237A14.124,14.124,0,0,1,517.216,111.017Zm0,0a14.239,14.239,0,1,1-14.008,14.237A14.124,14.124,0,0,1,517.216,111.017Zm0,0a14.239,14.239,0,1,1-14.008,14.237A14.124,14.124,0,0,1,517.216,111.017Zm0,0a14.239,14.239,0,1,1-14.008,14.237A14.124,14.124,0,0,1,517.216,111.017Zm0,0a14.239,14.239,0,1,1-14.008,14.237A14.124,14.124,0,0,1,517.216,111.017Zm0,0a14.239,14.239,0,1,1-14.008,14.237A14.124,14.124,0,0,1,517.216,111.017Zm0,0a14.239,14.239,0,1,1-14.008,14.237A14.124,14.124,0,0,1,517.216,111.017Zm0,0a14.239,14.239,0,1,1-14.008,14.237A14.124,14.124,0,0,1,517.216,111.017Zm0,0a14.239,14.239,0,1,1-14.008,14.237A14.124,14.124,0,0,1,517.216,111.017Zm0,0a14.239,14.239,0,1,1-14.008,14.237A14.124,14.124,0,0,1,517.216,111.017Zm0,0a14.239,14.239,0,1,1-14.008,14.237A14.124,14.124,0,0,1,517.216,111.017Zm0,0a14.239,14.239,0,1,1-14.008,14.237A14.124,14.124,0,0,1,517.216,111.017Zm0,0a14.239,14.239,0,1,1-14.008,14.237A14.124,14.124,0,0,1,517.216,111.017Z"/>
  <circle id="Pan_Potentiometer-5" data-name="Pan Potentiometer" class="cls-1" cx="517.438" cy="67" r="12.032"/>
  <circle id="Fader_Bottom_Screw-6" data-name="Fader Bottom Screw" class="cls-1" cx="397.063" cy="635.5" r="6.031"/>
  <path id="Fader-6" data-name="Fader" class="cls-2" d="M389.515,172.978h16V618.012h-16V172.978Zm0,0h16V618.012h-16V172.978Z"/>
  <circle id="Fader_Top_Screw-6" data-name="Fader Top Screw" class="cls-1" cx="397.078" cy="159.5" r="6.016"/>
  <path id="Toggle_Switch-6" data-name="Toggle Switch" class="cls-3" d="M399.147,111.017a14.239,14.239,0,1,1-14.009,14.237A14.124,14.124,0,0,1,399.147,111.017Zm0,0a14.239,14.239,0,1,1-14.009,14.237A14.124,14.124,0,0,1,399.147,111.017Zm0,0a14.239,14.239,0,1,1-14.009,14.237A14.124,14.124,0,0,1,399.147,111.017Zm0,0a14.239,14.239,0,1,1-14.009,14.237A14.124,14.124,0,0,1,399.147,111.017Zm0,0a14.239,14.239,0,1,1-14.009,14.237A14.124,14.124,0,0,1,399.147,111.017Zm0,0a14.239,14.239,0,1,1-14.009,14.237A14.124,14.124,0,0,1,399.147,111.017Z"/>
  <circle id="Pan_Potentiometer-6" data-name="Pan Potentiometer" class="cls-1" cx="398.531" cy="66.5" r="12.031"/>
  <circle id="Fader_Bottom_Screw-7" data-name="Fader Bottom Screw" class="cls-1" cx="280.469" cy="638.5" r="6"/>
  <path id="Fader-7" data-name="Fader" class="cls-2" d="M272.487,179.479h16.024V621.5H272.487V179.479Zm0,0h16.024V621.5H272.487V179.479Z"/>
  <circle id="Fader_Top_Screw-7" data-name="Fader Top Screw" class="cls-1" cx="280.485" cy="162.5" r="6.016"/>
  <path id="Toggle_Switch-7" data-name="Toggle Switch" class="cls-3" d="M281.078,111.017a14.239,14.239,0,1,1-14.008,14.237A14.124,14.124,0,0,1,281.078,111.017Zm0,0a14.239,14.239,0,1,1-14.008,14.237A14.124,14.124,0,0,1,281.078,111.017Zm0,0a14.239,14.239,0,1,1-14.008,14.237A14.124,14.124,0,0,1,281.078,111.017Zm0,0a14.239,14.239,0,1,1-14.008,14.237A14.124,14.124,0,0,1,281.078,111.017Zm0,0a14.239,14.239,0,1,1-14.008,14.237A14.124,14.124,0,0,1,281.078,111.017Zm0,0a14.239,14.239,0,1,1-14.008,14.237A14.124,14.124,0,0,1,281.078,111.017Zm0,0a14.239,14.239,0,1,1-14.008,14.237A14.124,14.124,0,0,1,281.078,111.017Zm0,0a14.239,14.239,0,1,1-14.008,14.237A14.124,14.124,0,0,1,281.078,111.017Zm0,0a14.239,14.239,0,1,1-14.008,14.237A14.124,14.124,0,0,1,281.078,111.017Z"/>
  <circle id="Pan_Potentiometer-7" data-name="Pan Potentiometer" class="cls-1" cx="280.469" cy="67.5" r="12"/>
  <circle id="Fader_Bottom_Screw-8" data-name="Fader Bottom Screw" class="cls-1" cx="161.5" cy="637.5" r="6"/>
  <path id="Fader-8" data-name="Fader" class="cls-2" d="M153.51,178.5h16V620.492h-16V178.5Zm0,0h16V620.492h-16V178.5Z"/>
  <circle id="Fader_Top_Screw-8" data-name="Fader Top Screw" class="cls-1" cx="161.5" cy="162.5" r="6"/>
  <path id="Toggle_Switch-8" data-name="Toggle Switch" class="cls-3" d="M162.509,110.508A14.239,14.239,0,1,1,148.5,124.746,14.125,14.125,0,0,1,162.509,110.508Zm0,0A14.239,14.239,0,1,1,148.5,124.746,14.125,14.125,0,0,1,162.509,110.508Zm0,0A14.239,14.239,0,1,1,148.5,124.746,14.125,14.125,0,0,1,162.509,110.508Zm0,0A14.239,14.239,0,1,1,148.5,124.746,14.125,14.125,0,0,1,162.509,110.508Zm0,0A14.239,14.239,0,1,1,148.5,124.746,14.125,14.125,0,0,1,162.509,110.508Zm0,0A14.239,14.239,0,1,1,148.5,124.746,14.125,14.125,0,0,1,162.509,110.508Z"/>
  <circle id="Pan_Potentiometer-8" data-name="Pan Potentiometer" class="cls-1" cx="162.5" cy="66.5" r="12"/>
  <path class="cls-2" d="M102,19h945V688H102V19Z"/>
  <path class="cls-4" d="M4,4H1146V791H4V4Z"/>
</svg>
